<?xml version="1.0" encoding="utf-8"?>
<!-- Generator: Adobe Illustrator 17.0.0, SVG Export Plug-In . SVG Version: 6.00 Build 0)  -->
<!DOCTYPE svg PUBLIC "-//W3C//DTD SVG 1.1//EN" "http://www.w3.org/Graphics/SVG/1.1/DTD/svg11.dtd">
<svg version="1.1" id="Layer_1" xmlns="http://www.w3.org/2000/svg" xmlns:xlink="http://www.w3.org/1999/xlink" x="0px" y="0px"
	 width="80px" height="80px" viewBox="0 0 80 80" enable-background="new 0 0 80 80" xml:space="preserve">
<path fill="#394A60" d="M58.803-51.146c-3.817,0-8.229,0.763-12.753,2.207C35.457-45.56,18.904-34.434,5.904-17.535
	c-1.624-1.094-3.633-1.687-5.903-1.687c-2.26,0-4.271,0.596-5.899,1.695C-18.9-34.429-35.459-45.56-46.048-48.939
	c-4.525-1.444-8.936-2.207-12.754-2.207c-3.39,0-6.215,0.594-8.396,1.765C-70.25-47.743-72-44.948-72-41.714
	c0,4.211,5.598,19.363,9.126,27.925c1.857,4.507,4.654,10.935,7.432,15.955c3.078,5.566,5.926,9.273,9.818,9.273
	c0.45,0,0.949,1.463,0.593,2.289c-1.352,3.136-2.063,7.216-1.022,12.421c1.653,8.264,7.106,14.36,11.389,18.019
	c4.065,3.474,9.892,6.978,13.742,6.978c4.775,0,12.834-4.514,17.494-11.187c1.332-1.907,5.525-1.909,6.855-0.003
	c4.659,6.674,12.72,11.189,17.497,11.189c3.851,0,9.677-3.504,13.742-6.978c4.283-3.658,9.735-9.754,11.389-18.019
	c0.986-4.932,0.399-8.853-0.814-11.919c-0.405-1.022-0.065-2.791,0.385-2.791c3.893,0,6.741-3.707,9.819-9.273
	c2.776-5.021,5.573-11.448,7.431-15.955C66.403-22.352,72-37.504,72-41.715C72-46.275,68.534-51.146,58.803-51.146z"/>
</svg>
