<?xml version="1.0" encoding="utf-8"?>
<!-- Generator: Adobe Illustrator 17.0.0, SVG Export Plug-In . SVG Version: 6.00 Build 0)  -->
<!DOCTYPE svg PUBLIC "-//W3C//DTD SVG 1.1//EN" "http://www.w3.org/Graphics/SVG/1.1/DTD/svg11.dtd">
<svg version="1.1" id="Layer_2" xmlns="http://www.w3.org/2000/svg" xmlns:xlink="http://www.w3.org/1999/xlink" x="0px" y="0px"
	 width="450.002px" height="268.864px" viewBox="0 0 450.002 268.864" enable-background="new 0 0 450.002 268.864"
	 xml:space="preserve">
<g>
	<path fill="#F6A0A3" d="M449.986,154.958c-0.227-5.263-3.104-12.72-15.522-18.36c-3.213-1.459-6.761-2.644-10.269-3.468
		c-3.221-0.886-2.255-3.667-1.328-5.173c4.487-7.294,6.982-15.862,6.625-23.53c-0.289-6.094-4.979-10.862-10.676-10.863
		c-3.464,0-6.659,1.742-8.767,4.779c-1.817,2.615-3.267,3.677-3.775,3.924c-1.788,0.027-4.418-2.386-3.935-4.429
		c1.34-5.657,1.696-14.202-2.931-24.828c-1.81-4.891,0.985-6.889,2.863-7.503c11.105-3.633,17.959-12.638,19.131-21.225
		c1.263-9.233-4.254-16.277-11.515-20.276c0.402-3.253-0.183-6.588-1.78-9.657c-3.319-6.377-10.169-10.185-18.324-10.185
		c-2.146,0-4.342,0.264-6.569,0.788C378.22,1.789,371.394,0.001,363.811,0c-13.454-0.001-27.365,5.816-34.561,18.438
		c-0.594,1.041-2.959,1.608-3.684,0.826c-1.484-1.604-3.146-3.08-4.976-4.408c-6.269-4.554-14.146-7.165-21.613-7.166
		c-3.248,0-6.205,0.505-8.786,1.502c-6.818,2.643-11.534,7.809-13.347,14.244c-11.195,0.406-18.901,9.538-20.219,16.188
		c-0.915,4.558-0.152,8.946,2.074,12.708c-3.57,3.385-5.949,7.795-6.913,12.958c-1.595,8.544,1.158,18.079,6.693,23.188
		c1.084,1.002,0.807,4.905-1.109,5.339c-1.747,0.396-3.256,0.737-4.737,0.954c-0.546,0.081-1.144,0.121-1.792,0.121
		c-4.794,0-11.184-2.076-16.822-3.908c-5.671-1.842-10.569-3.434-14.945-3.434c-2.038-0.001-3.916,0.351-5.583,1.045
		c-4.681,1.938-8.382,6.211-8.382,11.483c0,2.289-2.979,2.522-3.961,0.692c-1.214-2.262-2.769-4.398-4.643-6.351
		c-5.873-6.122-14.339-9.777-22.647-9.777c-5.448,0-10.668,1.552-15.098,4.489c-6.87,4.554-10.718,11.478-10.834,19.497
		c-0.02,1.373-1.804,3.893-2.847,3.776c-3.143-0.353-6.317-0.53-9.511-0.53c-18.295,0-34.387,5.817-40.995,14.819
		c-2.667,3.64-4.248,7.779-4.711,11.919c-0.09,0.801-2.113,2.539-3.07,2.694c-3.522,0.569-6.774,1.903-9.584,3.923
		c-1.444,1.039-5.358,0.757-5.291-0.794c0.197-4.341-1.115-11.593-4.494-17.965c-4.71-8.883-12.268-14.072-21.28-14.61
		c-0.18-0.01-0.359-0.016-0.537-0.016c-2.902,0-5.64,1.402-7.334,3.785c-1.798,2.53-2.167,5.808-0.974,8.673
		c0.204,0.49-1.353,4.423-4.56,3.057c-4.173-1.778-5.086-4.255-5.277-5.256c-0.89-4.667-4.956-8.053-9.668-8.053
		c-2.053,0-4.087,0.66-5.726,1.859c-2.522,1.842-4.519,4.517-5.929,7.946c-1.45,3.537-2.219,7.873-2.237,12.403
		c-0.035,8.614,2.644,17.929,8.519,23.79c1.455,1.455,1.578,6.007-2.461,8.152c-4.153,2.206-6.624,6.065-8.571,9.152
		c-0.908,1.439-1.37,3.071-1.387,4.705c-0.019,1.749,0.472,3.501,1.469,5.025c5.445,8.32,15.412,12.902,28.065,12.902
		c7.371,0,15.354-1.554,21.903-4.263c2.472-1.023,4.643-2.128,6.544-3.26c2.661-1.583,7.388,0.759,8.521,3.349
		c2.535,5.792,7.106,10.18,12.784,12.482c0.799,4.06,2.607,7.576,5.275,10.344c-3.956,4.662-6.393,9.986-6.754,15.163
		c-0.399,5.698,1.719,10.812,5.962,14.399c2.881,2.428,5.979,3.654,9.218,3.654c3.609,0,8.715-1.501,12.543-8.648
		c1.588-2.964,3.541-6.18,3.541-9.011c0-3.118,4.287-2.316,5.609-1.069c1.687,1.591,3.698,2.907,5.985,3.854
		c3.491,1.447,10.729,3.879,19.946,3.879c4.462,0,9.866-0.58,15.709-2.442c4.948-1.801,6.182,1.885,6.233,3.941
		c0.065,2.61,0.372,5.036,0.919,7.29c2.56,10.546,9.945,15.112,12.372,16.613c2.757,1.704,6.1,2.605,9.667,2.605
		c7.008,0,14.192-3.319,19.71-9.107c2.829-2.968,6.078-7.503,8.141-13.98c1.234-3.215,3.572-2.938,4.917-2.938
		c9.504,0,17.837-5.372,21.746-14.02c3.155-6.981,3.05-14.975-0.055-22.87c-0.999-2.333,0.488-4.229,1.427-4.738
		c3.098-1.678,5.73-3.931,7.728-6.64c1.44-1.952,5.032-1.982,6.102,0.115c0.776,1.521,1.617,2.979,2.522,4.371
		c11.836,18.182,23.594,25.845,31.373,29.072c4.203,1.74,7.056,2.097,7.83,2.164c0.264,0.023,0.525,0.034,0.786,0.034
		c3.151,0,6.099-1.654,7.73-4.395c17.778-29.847,17.483-58.865-0.811-79.615c-9.374-10.634,5.032-15.126,15.943-8.867
		c2.656,1.525,5.453,2.71,8.257,3.517c1.258,0.362,2.45,3.632,1.974,5.104c-1.213,3.738-1.62,7.758-1.001,11.51
		c1.14,6.913,5.687,12.15,12.162,14.008c1.695,0.487,3.412,0.734,5.101,0.734c2.657,0,5.055-0.584,7.194-1.576
		c1.175-0.544,3.766,0.671,4.111,1.982c2.84,10.759,10.405,20.637,19.479,20.637c0.345,0,0.692-0.015,1.034-0.045
		c8.001-0.699,13.32-8.236,14.373-19.534c0-3.42,3.107-3.283,4.522-2.495c5.111,2.847,9.824,4.804,14.188,5.904
		c2.708,0.683,5.588,1.028,8.562,1.028c9.51,0,18.438-3.394,23.883-9.077c3.53-3.686,5.435-8.117,5.554-12.882
		C450.008,155.833,450.004,155.397,449.986,154.958z M169.047,123.824c-1.502-2.843-2.248-6.364-0.82-9.391
		c2.192-4.65,7.996-5.18,12.342-3.589c5.084,1.861,7.536,6.649,6.508,11.897c3.965,1.049,8.043,2.917,10.477,6.362
		c2.169,3.072,2.438,6.927,1.461,10.493c-0.686,2.502-1.916,4.84-3.455,6.919c-0.673,0.91-1.432,2.243-2.709,2.243
		c-1.237,0-2.13-0.849-2.43-1.987c-1.247-4.731-5.851-7.909-9.464-10.793C176.585,132.49,171.713,128.87,169.047,123.824z
		 M210.74,216.03c-1.367,1.722-3.257,3.026-5.434,3.452c-1.304,0.256-2.651,0.188-3.941-0.119c-0.692-0.165-1.367-0.396-2.02-0.677
		c-0.515-0.221-1.076-0.493-1.638-0.248c-1.136,0.495,0.152,2.968,0.333,3.799c0.293,1.355,0.448,2.745,0.413,4.133
		c-0.062,2.503-0.761,5.093-2.464,6.989c-3.642,4.058-9.553,1.914-12.12-2.217c-2.147-3.455-1.939-7.837-1.092-11.66
		c0.925-4.178,2.665-8.189,4.787-11.893c2.631-4.592,5.742-8.892,7.685-13.853c0.916-2.34,1.543-4.782,1.832-7.28
		c0.139-1.193-0.076-2.539,1.044-3.299c0.859-0.583,2.208-0.805,3.058-0.085c6.23,5.266,10.757,13.015,12.017,21.104
		C213.844,208.322,213.433,212.638,210.74,216.03z M233.35,182.374c-1.645,2.27-5.701,1.976-8.169,1.701
		c-5.667-0.629-11.213-2.953-15.73-6.409c-3.702-2.832-6.708-6.495-8.813-10.65c-0.571-1.127-0.797-2.554,0.258-3.503
		c0.968-0.871,2.718-1.214,3.941-1.573c2.837-0.833,5.826-1.285,8.785-1.088c2.238,0.148,4.664,0.663,6.443,2.115
		c1.49,1.217,2.581,3.491,1.184,5.18c-0.529,0.64-2.08,1.371-2.086,2.253c-0.006,0.92,1.194,1.804,1.81,2.315
		c2.092,1.738,4.662,2.637,7.215,3.46c1.616,0.521,3.56,1.003,4.763,2.288C233.87,179.444,234.172,181.238,233.35,182.374z
		 M340.734,50.287c0.418-1.073,1.648-1.399,2.68-1.192c4.444,0.894,7.813,4.275,9.684,8.278c1.173,2.511,1.876,5.299,1.983,8.069
		c0.077,1.977-0.034,4.711-1.815,5.982c-2.291,1.634-5.087,0.673-6.691-1.421c-1.594-2.08-2.025-4.858-1.749-7.41
		c0.063-0.575,0.073-1.156,0.033-1.733c-0.188-2.736-1.432-5.309-2.983-7.527C341.251,52.441,340.273,51.47,340.734,50.287z
		 M292.746,197.422c-0.879,2.116-3.469,2.802-5.269,1.316c-1.874-1.546-3.472-3.656-4.985-5.542
		c-3.008-3.746-5.941-7.718-7.644-12.247c-3.564-9.477-3.407-20.332-1.63-30.167c0.146-1.178,0.596-2.578,1.811-3.044
		c1.084-0.416,2.279,0.201,2.821,1.183c2.439,4.427,5.369,8.581,8.671,12.405c2.704,3.132,4.99,6.47,6.463,10.362
		C296.122,179.979,295.305,189.096,292.746,197.422z M297.78,60.505c-0.856,2.094-1.396,4.155-2.979,5.864
		c-1.504,1.622-3.547,2.688-5.749,2.942c-2.27,0.263-4.604-0.325-6.405-1.752c-1.808-1.432-3.552-4.109-2.896-6.502
		c0.62-2.263,3.097-3.412,5.102-4.169c1.154-0.437,2.339-0.784,3.512-1.165c0.48-0.155,2.217-0.499,2.38-1.092
		c-0.334-0.803-1.922-0.279-2.543-0.205c-0.899,0.109-1.821,0.113-2.672-0.236c-1.581-0.646-2.825-2.606-2.764-4.308
		c0.129-3.626,5.829-4.604,8.492-5.12c1.261-0.244,2.531-0.44,3.803-0.614c0.981-0.134,2.236-0.085,3.105-0.619
		c0.746-0.459-0.663-1.236-0.976-1.564c-0.676-0.71-1.145-1.601-1.234-2.586c-0.181-1.985,1.821-3.8,3.321-4.771
		c1.795-1.163,3.941-1.771,6.077-1.771c2.572,0,5.049,0.867,7.215,2.22c0.93,0.581,2.547,1.398,2.813,2.555
		c0.227,0.979-0.129,2.378-1.06,2.895c-3.494,1.947-6.416,4.998-8.968,8.03C302.331,52.131,299.566,56.139,297.78,60.505z
		 M321.594,99.063c-1.521,1.896-4.216,0.947-5.895-0.162c-1.973-1.303-3.625-3.154-4.909-5.128
		c-2.261-3.474-3.629-7.547-4.297-11.62c-0.729-4.439-0.617-9.111,0.803-13.408c0.706-2.134,1.745-4.16,3.128-5.936
		c0.728-0.935,1.824-1.828,3.079-1.279c0.996,0.438,1.294,1.569,1.192,2.568c-0.615,6.033,0.247,12.401,2.014,18.18
		c0.922,3.015,2.293,5.623,3.839,8.345C321.822,92.865,323.502,96.688,321.594,99.063z M375.447,88.958
		c-1.168,0.412-2.354,0.617-3.487,1.156c-2.178,1.034-4.071,2.685-5.188,4.841c-0.67,1.295-1.049,2.739-1.086,4.198
		c-0.031,1.24,0.569,2.549,0.354,3.753c-0.213,1.196-1.241,2.439-2.538,2.439c-1.262,0-2.504-0.229-3.776-0.168
		c-2.138,0.101-4.263,0.62-6.107,1.729c-1.836,1.104-3.284,2.729-4.361,4.567c-0.583,0.994-0.949,2.46-2.191,2.811
		c-1.147,0.324-2.325-0.48-2.747-1.529c-1.607-3.985-4.127-7.407-7.958-9.456c-1.168-0.627-1.45-2.111-1.224-3.316
		c0.252-1.334,1.219-1.962,1.985-2.983c1.519-2.022,1.796-4.596,0.992-6.964c-0.816-2.407-2.559-4.449-4.625-5.89
		c-1.827-1.273-3.485-2.458-4.952-4.168c-3.43-3.996-5.791-9.087-6.577-14.296c-0.288-1.91-0.452-6.207,2.513-6.207
		c2.477,0,2.397,3.744,2.729,5.398c0.938,4.676,2.657,9.435,5.859,13.057c3.129,3.539,8.613,6.506,13.384,4.817
		c1.018-0.36,1.951-0.936,2.74-1.672c0.766-0.715,1.604-1.422,2.652-0.667c0.928,0.667,1.005,2.175,1.509,3.148
		c0.462,0.889,1.084,1.694,1.848,2.345c3.377,2.88,9.872,2.547,12.52-1.225c0.987-1.407,1.166-3.37,1.318-5.031
		c0.222-2.421,0.192-4.868,0.019-7.291c-0.19-2.674-0.567-5.346-1.211-7.95c-0.436-1.766-1.438-6.027,1.453-6.439
		c2.593-0.369,3.702,4.027,4.036,5.87c0.458,2.528,0.315,5.124,0.013,7.661c-0.288,2.437-0.066,4.938,0.503,7.318
		c0.32,1.342,0.759,2.658,1.336,3.912c0.493,1.073,1.385,2.095,1.645,3.251C377.083,87.133,376.648,88.535,375.447,88.958z
		 M388.608,45.458c-0.325,3.274-3.445,4.809-6.454,4.42c-3.987-0.516-7.263-3.351-10.557-5.423
		c-3.387-2.131-6.874-4.137-10.541-5.75c-2.408-1.059-4.909-1.96-7.497-2.458c-1.207-0.232-2.435-0.374-3.664-0.374
		c-1.235,0-2.47,0.323-3.657-0.152c-1.102-0.439-2.162-1.549-1.727-2.822c0.37-1.085,1.521-2.131,2.303-2.94
		c1.705-1.763,3.693-3.242,5.853-4.402c3.749-2.015,8.049-3.136,12.311-3.136c4.103,0,9.7,1.021,11.692,5.151
		c2.637-0.045,6.011,0.323,7.678,2.67c0.951,1.339,1.027,3.055,0.524,4.583c-0.213,0.647-2.304,3.467-1.026,3.938
		C386.615,39.786,388.916,42.354,388.608,45.458z"/>
	<path fill="#E9989C" d="M118.873,159.459c0.292-0.054,0.58-0.106,0.866-0.158c0.538-0.098,0.722-1.132,0.315-1.576
		c-2.009-2.177-3.625-4.679-4.725-7.319c-1.736,0.719-3.344,1.151-4.825,1.343c0.938,2.664,1.873,5.614,2.797,8.77
		C115.187,160.151,117.069,159.795,118.873,159.459z M114.29,152.922c0.851,1.674,1.899,3.288,3.103,4.779
		c-0.886,0.166-1.786,0.337-2.691,0.511c-0.529-1.755-1.053-3.409-1.566-4.95C113.517,153.161,113.903,153.048,114.29,152.922z
		 M135.392,187.504c1.153-0.382,2.418-0.593,3.791-0.593c0.61,0,1.243,0.042,1.896,0.129c0.116,0.016,0.226,0.022,0.331,0.022
		c1.229,0,1.702-1.008,0.721-2.145c-1.758-2.039-2.957-4.368-2.924-7.235c-0.951,0.175-1.923,0.356-2.942,0.546
		c-0.966,0.182-1.979,0.375-2.998,0.57c0.6,2.403,1.187,4.796,1.745,7.112C135.144,186.455,135.266,186.969,135.392,187.504z
		 M136.635,180.195c0.266-0.05,0.529-0.099,0.789-0.147c0.333,1.685,1.051,3.297,2.166,4.868c-0.136-0.003-0.271-0.005-0.406-0.005
		c-0.786,0-1.558,0.061-2.311,0.182c-0.374-1.548-0.761-3.13-1.155-4.725C136.027,180.309,136.333,180.252,136.635,180.195z
		 M103.306,185.209c-0.795,0.194-1.582,0.391-2.363,0.587c-0.443,0.993-0.97,1.963-1.529,2.872c-0.297,0.48,0.468,1.513,1.119,1.633
		c3.357,0.611,6.074,2.159,8.197,4.276c2.327-0.492,4.633-0.946,6.863-1.355c-0.73-3.34-1.506-6.809-2.328-10.319
		C109.903,183.645,106.549,184.414,103.306,185.209z M109.338,192.406c-2.166-1.915-4.689-3.216-7.526-3.881
		c0.188-0.341,0.367-0.681,0.535-1.019c0.475-0.118,0.952-0.236,1.432-0.354c2.423-0.594,5.05-1.208,7.986-1.867
		c0.459,1.992,0.933,4.094,1.431,6.351C111.915,191.882,110.625,192.139,109.338,192.406z M414.024,138.831
		c-1.917,0-3.467,0.239-4.605,0.711c-3.214,1.328-8.578,3.545-15.043,3.545c-2.896,0-5.753-0.454-8.489-1.349
		c-0.351-0.115-0.572-0.256-0.706-0.373c0.081-0.012,0.18-0.02,0.298-0.02c10.679,0,19.906-3.774,26.722-10.915
		c8.091-8.477,10.604-19.129,10.3-25.676c-0.111-2.35-1.73-4.189-3.685-4.189c-0.667,0-1.946,0.23-3.015,1.769
		c-1.795,2.583-5.384,6.921-9.234,6.932c-8.067,0.028-18.845,5.468-20.969,10.583c-1.701,4.104-8.262,12.115-13.63,12.758
		c-0.694-0.18-1.419-0.41-1.69-0.538c-1.021-0.876-1.943-1.755-2.748-2.62c0.031-0.158,0.093-0.346,0.156-0.468
		c6.228-3.48,10.276-9.958,10.607-16.983c0.188-0.415,0.979-1.194,1.398-1.376c6.223-0.25,11.808-4.319,14.596-10.645
		c2.322-5.27,5.835-19.735-11.677-40.175c-0.325-0.379-0.465-0.681-0.518-0.865c0.011,0,0.022,0,0.034,0
		c0.145,0,0.313,0.023,0.5,0.071c3.047,0.772,6.027,1.164,8.858,1.164c7.964,0,13.243-3.019,16.27-5.551
		c3.711-3.105,6.158-7.219,6.713-11.286c1.039-7.594-5.622-13.086-12.685-15.16c-0.439-0.129-0.559-0.436-0.578-0.558
		c2.106-3.075,2.368-6.819,0.694-10.036c-2.091-4.018-6.62-6.417-12.116-6.417c-2.54,0-5.219,0.505-7.981,1.505
		C378.146,9.143,371.44,7.001,363.81,7c-14.123-0.001-31.099,7.605-32.46,29.045c-0.002,0.028-0.003,0.057-0.003,0.084
		c-0.061,2.812-2.387,4.605-3.583,4.605c-0.634,0-0.677-1.102-0.69-1.463c-0.002-0.031-0.004-0.061-0.006-0.091
		c-1.435-16.891-17.289-24.489-28.09-24.49c-2.383,0-4.49,0.347-6.264,1.032c-6.527,2.53-10.135,8.149-9.653,15.032
		c0.013,0.187-0.253,0.458-0.428,0.527c-1.678-0.57-3.362-0.858-5.01-0.859c-8.031-0.001-13.39,6.779-14.133,10.575
		c-0.591,2.924-0.587,8.453,6.106,12.496c0.009,0.01,0.017,0.052,0,0.099c-0.008,0.021-0.025,0.065-0.125,0.105
		c-5.848,2.311-9.685,6.886-10.804,12.88c-1.139,6.104,0.821,13.31,4.56,16.761c1.651,1.525,7.674,6.502,15.815,6.502
		c6.58,0,12.699-3.152,18.193-9.37c-0.198,4.756,0.045,9.327,0.726,13.631c-0.307-0.01-0.609-0.015-0.908-0.015
		c-3.091,0-5.965,0.535-8.541,1.591c-1.098,0.457-2.143,1.041-3.022,1.553c-0.69,0.403-1.418,0.855-2.089,1.279
		c-1.798-0.077-3.542-0.116-5.193-0.116c-9.34,0-14.857,1.25-19.291,2.255c-1.811,0.41-3.521,0.798-5.273,1.053
		c-0.872,0.128-1.813,0.194-2.802,0.194c-5.902,0-12.853-2.258-18.984-4.25c-5.106-1.659-9.515-3.092-12.784-3.092
		c-1.125,0-2.071,0.166-2.892,0.507c-2.614,1.083-4.178,3.662-4.179,6.898c-0.001,5.86,5.154,13.912,16.675,18.689
		c3.905,1.62,7.673,2.441,11.201,2.441c0.217,0,0.433-0.003,0.647-0.009c0.109-0.003,0.215-0.004,0.319-0.004
		c0.726,0,1.163,0.075,1.408,0.142c-0.255,0.622-1.089,1.617-1.535,1.914c-7.695,3.877-14.552,6.5-20.382,7.795
		c-1.976,0.441-3.872,0.736-5.637,0.877c-0.029,0.002-0.058,0.005-0.086,0.009c0.635-2.625,0.782-5.099,0.438-7.361
		c-1.606-10.649-11.415-13.492-16.957-13.493c-0.287,0-0.562,0.007-0.823,0.02c-0.011-4.952-2.058-9.793-5.815-13.71
		c-4.58-4.773-11.158-7.623-17.597-7.624c-4.067,0-7.95,1.148-11.229,3.323c-10.802,7.159-8.626,19.31-3.481,27.539
		c0.009,0.015,0.018,0.029,0.027,0.043c-0.03-0.009-0.062-0.019-0.093-0.029c-7.547-2.418-15.458-3.644-23.513-3.644
		c-15.645,0-30.183,4.919-35.352,11.961c-4.088,5.578-4.617,12.98-1.287,18.002c0.963,1.442,2.187,2.599,3.647,3.449
		c0.492,1.301,1.002,2.754,1.53,4.352c-1.296-3.384-3.844-6.105-7.256-7.52c-1.404-0.583-2.973-0.944-4.662-1.073
		c-0.481-0.036-0.961-0.054-1.429-0.054c-4.868,0-9.196,1.929-12.188,5.432c-2.911,3.41-4.255,8.042-3.615,12.43
		c-0.068,0.021-0.191,0.045-0.39,0.045c-3.847,0-6.602-0.7-7.564-1.186c-3.519-8.659-2.97-12.888-2.438-16.979
		c0.15-1.155,0.305-2.35,0.359-3.601c0.15-3.295-0.939-9.205-3.684-14.383c-3.574-6.739-8.938-10.509-15.513-10.901
		c-0.04-0.003-0.08-0.004-0.12-0.004c-0.645,0-1.253,0.312-1.629,0.841c-0.4,0.562-0.481,1.291-0.217,1.927
		c1.012,2.43,0.608,4.666,0.049,7.76c-0.565,3.132-1.269,7.03-0.546,12.234c1.278,9.152,6.753,18.501,14.314,24.468
		c0.001,0.007,0.002,0.014,0.003,0.021c-7.714-1.242-10.18-5.753-11.884-9.899c-0.303-0.733-0.626-1.731-1-2.887
		c-1.875-5.794-5.011-15.493-14.639-19.484c-7.339-3.044-9.07-8.295-9.473-10.412c-0.266-1.391-1.414-2.362-2.792-2.362
		c-0.578,0-1.144,0.181-1.592,0.509c-1.469,1.072-2.677,2.741-3.588,4.958c-3.28,8.004-2.136,21.707,4.75,28.576
		c7.927,7.93,25.874,16.967,39.276,17.509c-1.916,1.227-3.888,1.825-6.015,1.825c-2.668,0-5.375-0.927-7.992-1.822
		c-1.988-0.681-4.045-1.385-6.11-1.695l-0.958-0.147c-2.265-0.353-5.085-0.792-8.16-0.792c-8.805,0-15.378,3.636-20.097,11.117
		c-0.417,0.662-0.41,1.507,0.019,2.162c5.266,8.046,14.983,9.735,22.208,9.735c6.392,0,13.579-1.395,19.227-3.731
		c10.894-4.507,14.603-10.71,15.057-11.535c0.282-0.455,0.622-0.867,1.064-1.293c2.094-2.003,5.604-3.04,10.433-3.079
		c-0.005,0.164-0.033,0.354-0.077,0.479c-4.13,5.675-5.021,13.013-2.323,19.179c2.369,5.412,7.047,8.978,12.91,9.877
		c-0.258,9.929,5.958,13.438,10.356,14.675c-6.558,4.477-10.987,10.94-11.393,16.732c-0.242,3.464,0.968,6.426,3.499,8.565
		c1.575,1.328,3.155,2,4.698,2c5.286,0,7.677-7.404,9.422-12.811c0.412-1.274,0.8-2.479,1.142-3.302
		c1.549-3.736,4.463-7.715,7.482-8.183c1.418-0.22,4.208-2.274,4.676-4.072c0.88-3.406,1.039-7.074,0.502-10.609
		c0.478,2.352,0.946,4.709,1.419,7.134c-0.754,1.218-1.279,2.536-1.563,3.931c-1.199,5.714,1.792,11.299,7.275,13.57
		c3.013,1.25,9.263,3.347,17.267,3.347c8.584,0,21.213-2.502,33.219-14.235c-9.086,27.094-2.238,35.777,5.696,40.684
		c1.649,1.02,3.719,1.559,5.985,1.559c8.907,0,21.883-8.652,22.879-27.89c0.068-0.15,0.29-0.371,0.482-0.494
		c3.111,1.565,6.273,2.357,9.407,2.357c6.718,0,12.606-3.795,15.368-9.903c3.766-8.332,1.164-18.9-6.954-28.37
		c0.263,0.007,0.525,0.011,0.786,0.011c9.27,0,16.679-4.979,18.438-12.388c1.396-5.883-0.962-14.102-11.714-19.63
		c2.335-2.766,2.918-6.084,1.587-9.206c-2.136-5.009-8.556-8.247-16.355-8.248c-5.316,0-11.05,1.479-16.735,4.3
		c2.318-2,4.541-4.454,6.456-7.15c1.12,0.104,2.239,0.156,3.339,0.156c0.48,0,0.962-0.01,1.445-0.03
		c7.11-0.305,15.134-2.428,24.534-6.488c7.183-3.114,14.987-7.289,23.862-12.763c0.578-0.355,0.926-0.395,1.049-0.395
		c0.063,0,0.088,0.01,0.088,0.01c0.083,0.103,0.222,0.778-0.283,1.893c-10.357,22.87-10.178,51.3,0.426,67.601
		c10.858,16.679,21.322,23.575,28.188,26.423c3.431,1.421,5.53,1.637,5.759,1.656c0.058,0.005,0.116,0.008,0.175,0.008
		c0.699,0,1.354-0.368,1.717-0.977c16.12-27.061,16.103-53.086-0.047-71.404c-11.798-13.383-15.529-28.813-10.292-42.436
		c0.484-0.31,0.94-0.597,1.36-0.851c1.273-0.784,2.137-1.229,2.409-1.339c1.143-0.479,2.589-0.727,4.215-0.727
		c0.987,0,2.039,0.089,3.125,0.264c0.321,0.05,0.653,0.11,1.004,0.18c4.326,10.708,11.813,19.004,22.856,25.34
		c4.25,2.439,9.063,3.839,13.204,3.839c5.768,0,9.86-2.604,11.382-7.186c2.711,2.161,5.99,3.332,9.502,3.396
		c0.476,0.619,1.004,1.212,1.593,1.789c-4.792,0.926-11.79,3.308-16.469,6.551c-4.606,3.194-7.549,10.674-6.56,16.674
		c0.709,4.303,3.262,7.292,7.187,8.418c1.068,0.307,2.135,0.462,3.17,0.462c9.081,0,13.168-11.238,13.555-15.111
		c0.249-2.596,2.224-8.495,6.479-9.528c0.061,0.041,0.125,0.102,0.15,0.157c0.017,0.036-0.021,0.134-0.033,0.163
		c-2.499,6.025-3.777,17.205-2.909,25.449c1.054,10.049,7.762,19.913,13.542,19.913c0.145,0,0.287-0.006,0.428-0.019
		c5.535-0.483,8.913-9.068,8.029-20.412c-0.494-6.401-3.088-10.547-5.596-14.557c-0.305-0.486-0.613-0.98-0.921-1.481
		c13.528,11.354,24.922,18.251,33.89,20.511c2.149,0.542,4.454,0.816,6.851,0.816c7.524,0,14.739-2.651,18.828-6.92
		c2.499-2.609,3.745-5.738,3.603-9.048C442.553,145.068,423.988,138.831,414.024,138.831z M420.561,169.226
		c-2.177,0-4.335-0.245-6.361-0.755c-10.103-2.546-22.626-11.101-35.081-21.791c-0.413-0.355-0.811-0.509-1.159-0.509
		c-1.109,0-1.729,1.556-0.81,3.155c3.074,5.333,6.621,9.355,7.193,16.767c0.804,10.317-2.16,17.91-6.21,18.264
		c-0.083,0.007-0.167,0.011-0.253,0.011c-4.07,0-10.516-8.231-11.553-18.123c-0.868-8.245,0.468-18.929,2.768-24.475
		c0.758-1.832-0.919-3.118-1.918-3.118c-0.067,0-0.132,0.006-0.191,0.018c-5.619,1.1-8.017,8.136-8.325,11.346
		c-0.337,3.377-4.068,13.31-11.564,13.31c-0.826,0-1.7-0.121-2.618-0.385c-9.229-2.648-6.461-17.074-0.039-21.527
		c4.587-3.18,11.77-5.545,16.241-6.33c1.786-0.313,2.442-1.55,1.199-2.636c-0.972-0.853-1.896-1.838-2.687-3.032
		c-0.236,0.011-0.473,0.017-0.709,0.017c-3.027,0-6.019-0.928-8.58-2.976c-0.549-0.439-1.348-1.164-1.979-1.164
		c-0.428,0-0.778,0.333-0.922,1.312c-1.121,4.648-5,6.615-9.712,6.615c-3.863,0-8.287-1.322-12.209-3.574
		c-6.209-3.562-16.867-10.83-22.38-25.331c-0.712-0.167-1.433-0.316-2.157-0.43c-1.169-0.188-2.329-0.289-3.443-0.289
		c-1.826,0-3.532,0.271-4.959,0.871c-0.453,0.182-1.452,0.714-2.701,1.484c-0.587,0.355-1.242,0.772-1.947,1.227
		c-5.127,12.663-3.44,29.376,10.415,45.093c16.248,18.429,14.883,43.786-0.171,69.058c0,0-1.922-0.168-5.166-1.511
		c-5.969-2.476-16.397-8.954-27.277-25.667c-10.616-16.318-10.018-44.186-0.281-65.685c1.198-2.645,0.278-4.728-1.627-4.728
		c-0.611,0-1.323,0.214-2.099,0.692c-7.44,4.589-15.523,9.125-23.605,12.629c-8.098,3.498-16.186,5.998-23.823,6.326
		c-0.456,0.019-0.91,0.028-1.363,0.028c-1.455,0-2.893-0.096-4.31-0.273c-2.935,4.4-6.768,8.229-10.501,10.472
		c-2.101,1.243-4.168,2.012-6.013,2.101c-7.338-4.397-15.975-6.979-24.129-6.979c-7.627,0-14.833,2.26-20.15,7.404
		c-0.709,0.683-1.405,1.33-2.082,1.984c-3.829,3.397-8.646,6.113-13.288,6.113c-0.895,0-1.783-0.101-2.657-0.317
		c0.404,1.443,0.811,2.92,1.222,4.457c0.431,1.616,0.863,3.276,1.295,4.952c3.29-0.633,6.322-1.196,8.991-1.68
		c1.478-2.915,4-6.264,7.981-10.207c5.309-5.149,12.508-7.411,20.136-7.411c8.152,0,16.795,2.583,24.139,6.985
		c2.669-2.167,5.279-3.953,7.836-5.413c6.869-3.944,13.199-5.496,18.468-5.495c12.272,0.001,18.771,8.423,12.816,14.633
		c-0.456,0.477,0.026,2.09,0.774,2.464c18.725,9.419,12.186,28.374-5.546,28.374c-0.519,0-1.049-0.016-1.587-0.049
		c-0.035-0.002-0.068-0.003-0.102-0.003c-1.377,0-2.021,1.741-1.01,2.889c15.927,18.094,7.182,35.426-6.5,35.426
		c-2.802,0-5.813-0.728-8.86-2.324c-0.142-0.074-0.302-0.108-0.474-0.108c-1.042,0-2.492,1.26-2.55,2.403
		c-0.901,17.894-12.64,26.056-20.885,26.056c-1.883,0-3.585-0.427-4.933-1.26c-6.929-4.285-13.855-12.169-4.529-39.299
		c0.669-1.946,0.244-3.187-0.733-3.187c-0.51,0-1.169,0.338-1.901,1.089c-11.056,11.326-22.95,14.648-32.803,14.648
		c-6.779,0-12.593-1.573-16.501-3.194c-5.031-2.084-6.999-6.949-6.081-11.325c0.282-1.388,0.866-2.718,1.723-3.903
		c-0.545-2.807-1.274-6.5-2.163-10.806c-0.26-1.253-0.532-2.561-0.815-3.902c-1.084,0.198-2.187,0.408-3.301,0.628
		c-0.407,0.082-0.872,1.014-0.711,1.408c1.954,4.807,2.246,10.449,1.013,15.217c-0.239,0.918-2.344,2.491-3.046,2.6
		c-3.974,0.615-7.27,5.162-9.024,9.394c-1.711,4.128-3.822,14.878-8.716,14.878c-1.01,0-2.139-0.459-3.407-1.527
		c-6.48-5.479-1.041-16.619,8.696-22.752c1.389-0.875,2.095-2.098-0.712-2.731c-4.511-1.021-10.283-4.175-9.704-13.693
		c0.02-0.347-0.67-1.113-1.039-1.155c-12.593-1.405-17.342-15.972-9.906-26.074c0.496-0.673,0.936-3.576-1.314-3.576
		c-6.431,0-10.021,1.646-12.105,3.64c-0.576,0.554-1.034,1.117-1.41,1.733c0,0-3.193,6.178-14.089,10.687
		c-4.911,2.032-11.734,3.58-18.462,3.58c-8.202,0-16.261-2.301-20.534-8.831c5.251-8.326,12.28-10.184,18.405-10.184
		c3.36,0,6.447,0.559,8.82,0.917c4.558,0.687,9.28,3.54,14.4,3.54c2.403,0,4.896-0.63,7.498-2.408
		c1.986-0.915-0.087-3.371-0.889-3.398c-12.668-0.294-30.683-9.165-38.458-16.943c-6.264-6.249-7.259-19.211-4.313-26.399
		c0.736-1.791,1.715-3.226,2.919-4.105c0.107-0.079,0.255-0.123,0.411-0.123c0.342,0,0.727,0.211,0.827,0.737
		c0.487,2.555,2.488,8.491,10.671,11.885c10.635,4.409,12.656,16.694,14.555,21.284c1.792,4.361,4.716,9.858,13.809,11.173
		c0.12,0.018,0.232,0.025,0.339,0.025c1.985,0,1.857-2.844,1.027-3.49c-7.243-5.624-12.576-14.728-13.777-23.334
		c-1.387-9.989,2.787-14.664,0.363-20.487c13.631,0.813,17.568,17.697,17.318,23.202c-0.237,5.475-2.563,9.858,2.383,21.809
		c0.082,0.197,0.324,0.398,0.707,0.599c1.408,0.748,4.675,1.444,8.551,1.444c2.064,0,2.506-1.461,2.394-2.173
		c-1.187-7.467,4.201-15.734,13.798-15.733c0.417,0,0.845,0.016,1.278,0.048c1.499,0.114,2.851,0.43,4.048,0.927
		c4.879,2.021,7.223,6.891,6.959,11.71c1.196-0.275,2.422-0.548,3.698-0.823c0.33-0.07,0.682-0.139,1.015-0.207
		c-1.203-4.082-2.411-7.769-3.58-10.771c-1.488-0.729-2.692-1.813-3.581-3.144c-2.751-4.149-2.516-10.599,1.232-15.713
		c4.476-6.098,17.803-11.145,33.74-11.145c7.287,0,15.121,1.056,22.901,3.548c0.541,0.173,1.031,0.257,1.454,0.257
		c1.58,0,2.209-1.174,0.92-3.236c-4.52-7.229-6.892-18.328,2.891-24.812c3.119-2.068,6.619-2.99,10.124-2.99
		c10.912,0.001,21.858,8.941,21.399,20.042c-0.021,0.537,0.948,1.303,1.827,1.303c0.032,0,0.064-0.001,0.096-0.003
		c0.288-0.019,0.593-0.028,0.914-0.028c4.956,0,13.556,2.354,14.979,11.794c0.321,2.107,0.142,4.358-0.416,6.638
		c-0.191,0.771-0.288,2.441,1.675,2.441c0.161,0,0.336-0.011,0.526-0.035c1.88-0.15,3.858-0.46,5.911-0.919
		c6.496-1.443,13.703-4.359,20.884-7.979c1.167-0.588,5.818-5.824-0.809-5.824c-0.121,0-0.246,0.001-0.375,0.005
		c-0.196,0.006-0.393,0.008-0.591,0.008c-3.218,0-6.683-0.732-10.435-2.289c-16.048-6.654-18.383-19.455-12.494-21.894
		c0.588-0.245,1.301-0.354,2.123-0.354c6.736,0.001,20.698,7.342,31.768,7.342c1.059,0,2.093-0.067,3.09-0.215
		c6.234-0.909,11.377-3.287,24.275-3.287c1.759,0,3.663,0.044,5.732,0.143c0.917-0.584,1.779-1.124,2.555-1.577
		c1.01-0.588,1.888-1.062,2.775-1.431c2.571-1.054,5.215-1.441,7.782-1.441c1.131,0,2.247,0.075,3.336,0.202
		c-0.979-4.789-1.429-10.19-1.13-16.29c0.061-1.245-0.727-1.948-1.639-1.948c-0.557,0-1.158,0.261-1.643,0.82
		c-5.817,6.708-11.718,8.969-16.935,8.969c-6.234,0-11.492-3.231-14.459-5.972c-5.323-4.913-7.747-21.027,5.624-26.312
		c1.698-0.672,1.864-2.903,0.423-3.775c-5.208-3.146-5.799-7.327-5.178-10.399c0.563-2.876,5.119-8.96,12.17-8.959
		c1.396,0,2.889,0.239,4.468,0.787c0.166,0.058,0.34,0.085,0.517,0.085c1.202,0,2.549-1.248,2.449-2.68
		c-0.345-4.929,1.728-10.448,8.379-13.026c1.536-0.594,3.438-0.898,5.543-0.898c10.068,0,24.765,6.972,26.097,22.659
		c0.093,2.386,1.259,3.386,2.689,3.386c2.385,0,5.501-2.784,5.582-6.563c1.268-19.967,17.07-27.173,30.464-27.172
		c7.656,0.001,14.527,2.355,17.441,6.027c3.148-1.305,6.016-1.864,8.531-1.863c9.289,0.001,13.767,7.618,9.718,13.4
		c-0.729,1.045-0.113,2.992,1.719,3.529c5.497,1.614,12.204,6.115,11.267,12.971c-0.898,6.584-8.142,15.107-21.001,15.107
		c-2.566,0-5.358-0.34-8.366-1.103c-0.357-0.091-0.688-0.133-0.992-0.133c-2.111,0-2.846,2.053-1.035,4.166
		c22.872,26.697,11.612,47.1-1.59,47.524c-1.119,0.037-3.156,2.034-3.202,3.164c-0.286,7.017-4.448,12.645-9.769,15.542
		c-0.79,0.43-1.368,2.483-0.785,3.129c1.055,1.171,2.197,2.245,3.324,3.206c0.493,0.423,2.743,0.961,2.743,0.961
		c6.636-0.461,13.833-9.677,15.632-14.014c1.8-4.335,11.836-9.325,19.127-9.35c4.616-0.013,8.58-4.494,10.872-7.792
		c0.446-0.643,0.927-0.909,1.371-0.909c0.884,0,1.628,1.051,1.687,2.283c0.581,12.455-9.598,34.498-34.988,34.498
		c-0.01,0-0.023,0-0.032,0c-0.001,0-0.002,0-0.003,0c-3.172,0-3.329,3.274-0.214,4.294c3.193,1.045,6.258,1.448,9.111,1.448
		c6.868,0,12.517-2.337,15.808-3.697c0.912-0.377,2.239-0.559,3.841-0.559c8.999,0,26.592,5.727,26.97,14.514
		C441.361,163.873,430.746,169.226,420.561,169.226z M102.143,179.693c3.206-0.781,6.506-1.537,9.811-2.269
		c-0.629-2.574-1.272-5.133-1.927-7.621c-0.243-0.919-0.486-1.829-0.731-2.728c-0.46,0.098-0.922,0.193-1.375,0.288
		c-2.488,0.534-4.813,1.071-6.859,1.587c-0.877,1.368-2.042,2.59-3.497,3.562c-0.678,0.451-0.762,1.58-0.14,1.825
		C100.501,175.55,101.846,177.488,102.143,179.693z M102.285,170.708c1.689-0.417,3.559-0.848,5.573-1.284
		c0.079,0.296,0.158,0.593,0.236,0.891c0.457,1.735,0.928,3.583,1.43,5.603c-2.145,0.482-4.124,0.939-5.979,1.381
		c-0.598-1.4-1.701-2.856-3.683-4.005C100.776,172.536,101.586,171.672,102.285,170.708z M127.379,197.74
		c0.037-0.252-0.303-0.68-0.541-0.68c-0.009,0-0.018,0.001-0.027,0.002c-1.401,0.211-2.899,0.442-4.483,0.702
		c0.965,4.575,1.793,8.68,2.445,11.984c1.267-0.453,2.701-0.727,4.305-0.765c0.824-0.02,1.151-1.075,0.579-1.795
		C127.604,204.598,126.894,201.1,127.379,197.74z M126.32,207.266c-0.527-2.641-1.064-5.271-1.604-7.859
		c0.176-0.027,0.35-0.055,0.522-0.081c-0.078,2.837,0.601,5.555,1.95,7.801C126.895,207.166,126.606,207.212,126.32,207.266z
		 M126.345,174.409c-0.399-1.547-0.8-3.083-1.199-4.577c-0.512-1.914-1.019-3.759-1.517-5.511c-2.717,0.485-5.74,1.045-8.8,1.638
		c0.216,0.798,0.432,1.597,0.646,2.408c0.678,2.573,1.337,5.214,1.985,7.867c2.49-0.526,4.963-1.04,7.357-1.521
		C125.332,174.609,125.835,174.511,126.345,174.409z M118.94,173.879c-0.559-2.261-1.054-4.207-1.532-6.021
		c-0.03-0.114-0.06-0.227-0.09-0.34c1.607-0.305,3.251-0.611,4.877-0.906c0.331,1.189,0.671,2.44,1.018,3.737
		c0.221,0.827,0.442,1.667,0.664,2.514C122.361,173.169,120.73,173.504,118.94,173.879z M118.769,181.714
		c0.745,3.189,1.465,6.361,2.134,9.411c0.083,0.381,0.163,0.749,0.244,1.125c0.016-0.003,0.032-0.005,0.047-0.009
		c3.508-0.578,6.659-1.036,9.207-1.384c-0.826-3.479-1.729-7.211-2.669-10.978C124.835,180.454,121.826,181.067,118.769,181.714z
		 M122.697,189.971c-0.475-2.156-0.983-4.406-1.518-6.719c1.633-0.341,3.313-0.685,5.072-1.038c0.545,2.208,1.112,4.539,1.693,6.966
		C126.18,189.432,124.425,189.697,122.697,189.971z"/>
	<path fill="#76604B" d="M410.183,141.389c-4.659,1.926-14.041,5.809-24.919,2.249c-3.116-1.02-2.958-4.296,0.217-4.294
		c25.411,0.019,35.602-22.039,35.021-34.498c-0.088-1.851-1.725-3.295-3.058-1.374c-2.292,3.298-6.256,7.779-10.872,7.792
		c-7.291,0.025-17.327,5.015-19.127,9.35c-1.799,4.337-8.996,13.553-15.632,14.014c0,0-2.25-0.538-2.743-0.961
		c-1.127-0.961-2.27-2.035-3.324-3.206c-0.583-0.646-0.005-2.699,0.785-3.129c5.32-2.897,9.482-8.525,9.769-15.542
		c0.046-1.13,2.083-3.127,3.202-3.164c13.202-0.425,24.462-20.827,1.59-47.524c-2.07-2.417-0.813-4.755,2.027-4.033
		c18.08,4.583,28.289-6.106,29.367-14.005c0.938-6.855-5.77-11.356-11.267-12.971c-1.832-0.537-2.448-2.484-1.719-3.529
		c5.146-7.348-3.478-17.661-18.249-11.537c-8.014-10.095-45.913-10.236-47.905,21.145c-0.129,6.044-8.024,9.542-8.271,3.177
		c-1.61-18.966-22.756-25.192-31.64-21.761c-6.651,2.578-8.724,8.097-8.379,13.026c0.116,1.643-1.676,3.044-2.966,2.595
		c-9.558-3.32-15.963,4.727-16.638,8.172c-0.621,3.072-0.03,7.254,5.178,10.399c1.441,0.872,1.275,3.103-0.423,3.775
		c-13.37,5.285-10.946,21.398-5.624,26.312c5.451,5.033,18.625,11.724,31.394-2.998c1.28-1.477,3.379-0.874,3.281,1.128
		c-0.299,6.099,0.15,11.5,1.13,16.29c-3.56-0.415-7.415-0.278-11.118,1.239c-0.887,0.369-1.765,0.843-2.775,1.431
		c-0.776,0.454-1.638,0.993-2.555,1.577c-17.248-0.818-22.923,2.111-30.008,3.145c-12.692,1.875-31.108-9.218-36.981-6.773
		c-5.889,2.438-3.554,15.24,12.494,21.894c3.982,1.652,7.642,2.375,11.025,2.28c7.173-0.198,2.372,5.22,1.184,5.818
		c-7.181,3.621-14.388,6.536-20.884,7.979c-2.053,0.458-4.031,0.769-5.911,0.919c-2.504,0.315-2.408-1.572-2.201-2.406
		c0.558-2.279,0.737-4.53,0.416-6.638c-1.516-10.053-11.167-12.069-15.894-11.766c-0.903,0.059-1.945-0.743-1.923-1.299
		c0.606-14.667-18.691-25.561-31.522-17.053c-9.782,6.483-7.41,17.583-2.891,24.812c1.634,2.614,0.187,3.801-2.374,2.979
		c-24.797-7.944-50.119-1.29-56.641,7.596c-3.749,5.114-3.983,11.564-1.232,15.713c0.889,1.332,2.093,2.416,3.581,3.144
		c1.168,3.002,2.376,6.688,3.58,10.771c-0.333,0.068-0.685,0.137-1.015,0.207c-1.276,0.274-2.502,0.548-3.698,0.823
		c0.263-4.82-2.081-9.689-6.959-11.71c-1.197-0.497-2.549-0.813-4.048-0.927c-10.392-0.77-16.314,7.894-15.076,15.686
		c0.113,0.712-0.33,2.173-2.394,2.173c-3.875,0-7.143-0.697-8.551-1.444c-0.383-0.201-0.625-0.402-0.707-0.599
		c-4.946-11.951-2.62-16.334-2.383-21.809c0.25-5.504-3.687-22.388-17.318-23.202c2.424,5.823-1.75,10.499-0.363,20.487
		c1.202,8.606,6.534,17.71,13.777,23.334c0.875,0.681,0.97,3.803-1.366,3.465c-9.093-1.315-12.017-6.813-13.809-11.173
		c-1.898-4.59-3.919-16.875-14.555-21.284c-8.184-3.394-10.185-9.33-10.671-11.885c-0.146-0.766-0.896-0.865-1.238-0.614
		c-1.204,0.879-2.183,2.314-2.919,4.105c-2.946,7.188-1.951,20.15,4.313,26.399c7.775,7.778,25.79,16.649,38.458,16.943
		c0.802,0.027,2.875,2.484,0.889,3.398c-8.144,5.566-15.199-0.123-21.897-1.132c-6.697-1.009-19.092-3.626-27.225,9.268
		c7.779,11.886,28.099,9.76,38.996,5.251c10.896-4.509,14.089-10.687,14.089-10.687c0.376-0.617,0.834-1.179,1.41-1.733
		c2.083-1.994,5.674-3.64,12.105-3.64c2.25,0,1.811,2.902,1.314,3.576c-7.437,10.102-2.687,24.669,9.906,26.074
		c0.369,0.042,1.059,0.808,1.039,1.155c-0.579,9.518,5.193,12.672,9.704,13.693c2.807,0.633,2.101,1.856,0.712,2.731
		c-9.736,6.133-15.176,17.273-8.696,22.752c7.413,6.247,10.06-8.371,12.124-13.351c1.754-4.231,5.05-8.779,9.024-9.394
		c0.702-0.109,2.807-1.681,3.046-2.6c1.232-4.768,0.941-10.41-1.013-15.217c-0.161-0.394,0.304-1.326,0.711-1.408
		c1.114-0.22,2.217-0.43,3.301-0.628c0.284,1.341,0.555,2.648,0.815,3.902c0.889,4.306,1.618,7.999,2.163,10.806
		c-0.857,1.185-1.441,2.515-1.723,3.903c-0.918,4.376,1.05,9.24,6.081,11.325c9.588,3.977,30.642,7.665,49.304-11.455
		c2.135-2.19,3.654-0.864,2.635,2.098c-9.326,27.13-2.4,35.014,4.529,39.299c7.249,4.481,24.711-2.814,25.818-24.796
		c0.067-1.332,2.023-2.821,3.023-2.295c17.923,9.395,34.549-11.302,15.36-33.102c-1.036-1.176-0.335-2.974,1.112-2.885
		c18.913,1.168,26.406-18.629,7.133-28.324c-0.748-0.374-1.23-1.988-0.774-2.464c8.512-8.876-8.413-22.271-31.284-9.138
		c-2.557,1.46-5.167,3.246-7.836,5.413c-14.216-8.52-33.292-10.227-44.275,0.426c-3.981,3.942-6.503,7.292-7.981,10.207
		c-2.669,0.484-5.702,1.047-8.991,1.68c-0.432-1.676-0.864-3.336-1.295-4.952c-0.412-1.537-0.818-3.014-1.222-4.457
		c5.406,1.339,11.378-1.744,15.945-5.796c0.677-0.655,1.372-1.302,2.082-1.984c11.003-10.646,30.079-8.937,44.279-0.426
		c1.845-0.089,3.913-0.857,6.013-2.101c3.733-2.242,7.566-6.071,10.501-10.472c1.858,0.233,3.751,0.324,5.673,0.245
		c7.637-0.328,15.726-2.828,23.823-6.326c8.082-3.504,16.165-8.04,23.605-12.629c3.197-1.97,5.308,0.543,3.726,4.035
		c-9.736,21.499-10.334,49.367,0.281,65.685c10.88,16.712,21.309,23.19,27.277,25.667c3.244,1.343,5.166,1.511,5.166,1.511
		c15.054-25.272,16.419-50.628,0.171-69.058c-13.855-15.717-15.542-32.431-10.415-45.093c0.705-0.455,1.36-0.872,1.947-1.227
		c1.249-0.77,2.248-1.302,2.701-1.484c2.298-0.966,5.318-1.079,8.402-0.582c0.725,0.113,1.445,0.263,2.157,0.43
		c5.513,14.501,16.171,21.769,22.38,25.331c8.706,4.998,19.881,5.418,21.921-3.041c0.355-2.424,1.979-0.886,2.9-0.148
		c2.762,2.208,6.022,3.114,9.289,2.959c0.79,1.194,1.715,2.18,2.687,3.032c1.243,1.086,0.587,2.322-1.199,2.636
		c-4.472,0.784-11.654,3.149-16.241,6.33c-6.422,4.453-9.19,18.878,0.039,21.527c9.249,2.656,13.809-9.176,14.183-12.925
		c0.309-3.21,2.706-10.246,8.325-11.346c0.955-0.188,2.918,1.146,2.109,3.101c-2.3,5.546-3.636,16.23-2.768,24.475
		c1.059,10.099,7.754,18.466,11.806,18.112c4.05-0.354,7.014-7.947,6.21-18.264c-0.572-7.412-4.119-11.434-7.193-16.767
		c-1.21-2.102,0.242-4.129,1.969-2.646c12.455,10.69,24.979,19.245,35.081,21.791c11.505,2.9,27.239-2.776,26.794-13.126
		C440.548,144.993,416.22,138.891,410.183,141.389z M201.762,163.554c9.264-3.828,17.722-2.417,19.375,1.612
		c1.793,4.301-5.958,3.384-0.484,7.933c5.475,4.547,13.383,3.272,12.591,8.271c-0.786,4.846-23.559,3.242-32.433-15.13
		C200.55,165.693,200.407,164.114,201.762,163.554z M197.742,184.562c0.059-1.089,2.15-1.926,3.118-1.106
		c9.046,7.646,12.503,18.85,12.097,25.366c-0.381,6.091-5.622,13.004-13.743,9.259c-1.499-0.689-2.926,0.192-2.361,1.799
		c3.951,11.256-3.345,18.661-10.141,13.6c-7.784-5.75-2.65-19.5,2.311-27.345C194.121,198.023,197.31,192.624,197.742,184.562z
		 M160.115,186.74c10.21,1.708,21.03-6.116,26.356-14.032c0.95-1.413,1.928-0.879,1.407,0.866
		c-3.198,10.701-14.6,22.535-28.249,15.056C157.712,187.579,157.951,186.378,160.115,186.74z M145.473,212.251
		c9.602,2.796,20.783-1.116,26.36-9.099c1.465-2.098,2.333-1.663,1.57,0.551c-5,14.494-19.948,15.247-28.693,10.143
		C142.841,212.754,143.608,211.709,145.473,212.251z M136.265,178.229c1.019-0.19,1.991-0.371,2.942-0.546
		c-0.033,2.867,1.166,5.196,2.924,7.235c1.064,1.233,0.416,2.316-1.052,2.122c-2.121-0.284-4.02-0.087-5.687,0.464
		c-0.126-0.535-0.248-1.048-0.379-1.592c-0.559-2.316-1.146-4.709-1.745-7.112C134.286,178.604,135.299,178.411,136.265,178.229z
		 M115.329,150.407c1.1,2.64,2.716,5.142,4.725,7.319c0.407,0.444,0.223,1.478-0.315,1.576c-0.286,0.051-0.573,0.104-0.866,0.158
		c-1.805,0.335-3.687,0.692-5.572,1.061c-0.924-3.156-1.859-6.106-2.797-8.77C111.985,151.558,113.594,151.126,115.329,150.407z
		 M97.426,174.338c-0.622-0.245-0.538-1.374,0.14-1.825c1.455-0.971,2.62-2.193,3.497-3.562c2.046-0.516,4.372-1.053,6.859-1.587
		c0.452-0.095,0.915-0.19,1.375-0.288c0.245,0.899,0.488,1.809,0.731,2.728c0.655,2.487,1.298,5.047,1.927,7.621
		c-3.304,0.732-6.604,1.488-9.811,2.269C101.846,177.488,100.501,175.55,97.426,174.338z M108.729,194.577
		c-2.123-2.118-4.839-3.665-8.197-4.276c-0.651-0.12-1.416-1.153-1.119-1.633c0.56-0.909,1.086-1.878,1.529-2.872
		c0.781-0.196,1.567-0.393,2.363-0.587c3.244-0.795,6.597-1.563,9.959-2.306c0.822,3.51,1.598,6.979,2.328,10.319
		C113.362,193.631,111.056,194.085,108.729,194.577z M117.459,176.234c-0.647-2.652-1.307-5.293-1.985-7.867
		c-0.213-0.811-0.429-1.61-0.646-2.408c3.06-0.593,6.083-1.153,8.8-1.638c0.498,1.752,1.005,3.597,1.517,5.511
		c0.399,1.494,0.8,3.03,1.199,4.577c-0.509,0.102-1.013,0.2-1.528,0.305C122.422,175.194,119.95,175.708,117.459,176.234z
		 M129.079,208.984c-1.604,0.039-3.038,0.312-4.305,0.765c-0.652-3.305-1.48-7.409-2.445-11.984c1.584-0.26,3.082-0.491,4.483-0.702
		c0.237-0.035,0.606,0.416,0.567,0.678c-0.485,3.36,0.225,6.858,2.279,9.448C130.23,207.909,129.903,208.964,129.079,208.984z
		 M130.401,190.856c-2.548,0.348-5.699,0.806-9.207,1.384c-0.016,0.004-0.032,0.006-0.047,0.009
		c-0.081-0.376-0.161-0.744-0.244-1.125c-0.668-3.05-1.389-6.221-2.134-9.411c3.057-0.647,6.066-1.26,8.963-1.836
		C128.672,183.645,129.575,187.378,130.401,190.856z M163.659,139.997c-11.367-2.053-23.522,0.659-33.796,2.232
		c-1.141,0.176-1.769-1.071-0.746-1.819c7.311-5.341,22.197-9.401,35.619-2.547C166.949,138.992,166.228,140.462,163.659,139.997z
		 M193.859,147.827c-0.836,0.952-2.634,0.187-2.887-0.906c-1.533-6.574-9.536-10.335-16.995-17.575
		c-8.704-8.429-6.807-16.041-1.604-18.192c5.228-2.162,16.609,1.031,14.115,11.952C202.952,127.208,200.864,139.847,193.859,147.827
		z M286.631,162.214c9.544,10.808,9.08,23.862,5.654,35.016c-0.983,2.369-3.512,2.116-4.674,0.955
		c-2.941-2.941-6.254-6.9-9.726-12.23c-5.145-7.913-6.622-21.533-4.171-35.109c0.431-3.47,2.867-3.185,3.697-1.681
		C279.898,153.677,282.972,158.058,286.631,162.214z M345.203,32.645c9.057-12.382,28.154-11.824,31.146-4.567
		c9.271-0.278,9.422,5.288,7.035,8.548c-0.658,0.903-0.506,2.312,0.288,2.605c8.364,3.089,4.497,15.639-7.611,7.535
		c-10.561-7.081-20.262-12.197-27.997-11.289C346.08,35.711,344.163,34.067,345.203,32.645z M343.076,49.539
		c11.209,2.006,13.396,18.664,10.133,21.299c-3.584,2.905-8.641-1.225-7.887-8.191c0.46-4.16-1.818-8.068-3.728-10.539
		C340.31,50.444,341.884,49.326,343.076,49.539z M296.659,62.13c-2.624,8.386-13.195,8.924-16.144,1.764
		c-2.973-7.15,11.625-7.197,10.692-9.454c-0.937-2.259-5.506,2.049-7.669-3.181c-1.788-4.349,5.474-5.876,13.386-6.847
		c1.582-0.192,2.835-1.003,1.318-2.174c-0.91-0.702-1.675-1.653-1.788-2.904c-0.284-3.13,8.31-10.475,18.134-2.177
		c0.654,0.555,0.363,2.429-0.508,2.913C307.551,43.709,298.978,54.715,296.659,62.13z M312.544,95.309
		c-6.075-7.206-9.13-23.266-1.393-32.607c1.222-1.474,3.281-0.962,3.047,1.347c-0.737,7.226,0.972,19.048,5.339,25.867
		C325.284,98.906,319.592,103.662,312.544,95.309z M363.33,104.835c-9.484-1.178-13.353,3.726-15.326,7.954
		c-0.811,1.735-2.679,1.132-3.223-0.22c-2.256-5.594-5.266-8.147-8.186-9.709c-1.46-0.782-1.225-3.382-0.212-4.31
		c5.141-4.719,2.312-11.916-3.463-15.363c-4.478-2.685-9.822-10.386-10.628-18.881c-0.443-4.666,3.428-5.875,3.956-2.069
		c1.155,8.35,4.402,15.479,9.787,18.928c6.198,3.967,11.155,2.836,13.941-0.176c0.739-0.8,1.877-0.329,2.129,0.677
		c2.322,9.243,14.349,7.635,16.543,2.348c1.415-3.415,1.488-13.186-0.563-20.645c-1.232-4.478,1.522-6.302,3.129-3.769
		c2.218,3.501,2.083,8.043,1.629,11.84c-0.567,4.796,0.838,10.253,3.064,13.652c0.958,1.461,0.424,3.184-0.811,3.447
		c-7.87,1.683-11.016,8.103-9.581,13.374C365.887,103.278,364.628,104.995,363.33,104.835z"/>
</g>
</svg>
