<?xml version="1.0" encoding="utf-8"?>
<!-- Generator: Adobe Illustrator 14.0.0, SVG Export Plug-In . SVG Version: 6.00 Build 43363)  -->
<!DOCTYPE svg PUBLIC "-//W3C//DTD SVG 1.1//EN" "http://www.w3.org/Graphics/SVG/1.1/DTD/svg11.dtd">
<svg version="1.1" id="Layer_2" xmlns="http://www.w3.org/2000/svg" xmlns:xlink="http://www.w3.org/1999/xlink" x="0px" y="0px"
	 width="333.583px" height="813.486px" viewBox="0 0 333.583 813.486" enable-background="new 0 0 333.583 813.486"
	 xml:space="preserve">
<g>
	<g>
		<path fill="#31302C" d="M239.681,155.066c-2.588-2.588-5.689-4.366-8.983-5.731c-5.312-2.198-11.119-3.315-16.043-5.005
			c-0.441-0.146-0.878-0.302-1.307-0.466c-3.252-1.235-8.547-4.198-14.278-7.858c-8.581-5.475-18.136-12.514-23.258-17.636
			c-5.463-5.463-11.846-19.061-16.321-29.549c6.097-4.681,8.282-7.021,8.266-9.476c-0.013-2.336-2.025-4.782-4.551-9.463
			c-5.56-10.312-7.534-7.581-21.691-0.172c-9.757-3.055-22.754-6.051-30.415-9.047c-11.829-4.63-41.835-31.452-52.962-35.818
			c-0.004,0-0.004,0-0.008,0c-0.992-0.391-1.832-0.601-2.496-0.601c-2.798,0-5.324,3.643-8.686,10.644
			c-0.349,0.73-0.79,1.693-1.298,2.849c-4.362,9.917-13.619,34.053-12.425,47.857c0.416,4.815,1.971,8.648,4.349,11.909h-0.004
			c3.702,7.509,13.976,30.927,15.409,38.575c1.433,7.643,1.193,21.741,0,27.477c4.181,4.181,15.388,5.878,23.107,5.878
			c5.568-1.336,22.187-5.639,22.187-5.639s-0.874-5.471-0.647-10.45c2.231,3.441,4.484,7.093,6.753,10.967
			c0.361,0.618,0.727,1.223,1.092,1.815c0.017,0.025,0.03,0.051,0.042,0.076c14.762,25.064,29.418,30.733,74.191,27.376
			c44.823-3.361,65.274-14.287,67.795-16.808c0.74-0.74,0.912-1.975,0.605-3.534c0.105-0.089,0.193-0.168,0.265-0.24
			C250.888,170.476,246.825,162.21,239.681,155.066z"/>
		<path fill="none" stroke="#140E0D" stroke-linecap="round" stroke-linejoin="round" d="M85.848,73.985
			c7.052,1.861,15.868,5.381,24.297,10.533 M130.849,102.95c1.063,1.47,2.047,2.992,2.941,4.566
			c8.486,14.938,19.939,28.451,27.723,36.885 M76.631,162.912c0.4-11.556-1.853-24.711-4.832-35.175"/>
	</g>
	<path fill="#2E2D29" d="M239.679,155.065c-2.59-2.59-5.69-4.36-8.98-5.73c-5.31-2.2-11.12-3.32-16.04-5
		c-0.45-0.15-0.88-0.31-1.31-0.47c-3.25-1.24-8.55-4.2-14.28-7.86c-0.56-0.35-1.12-0.71-1.68-1.08c-0.21,0.32-0.32,0.69-0.32,1.08
		c0,0.06-0.08,1.57-6.91,4.21c-4.9,1.89-11.63,3.75-18.76,5.72c-1.87,0.51-3.76,1.04-5.66,1.57l-0.58,0.17l-0.54,0.15
		c-4.96,1.4-9.86,2.12-14.54,2.12c-9.36,0-18.09-2.72-26.68-8.32c-7.06-4.59-9.74-15.69-7.98-32.99c0.14-1.41,0.3-2.67,0.44-3.78
		l0.03-0.25c0.64-5.18-2.18-9.42-8.63-12.98c-3.87-2.14-8.65-3.85-13.26-5.5l-1.27-0.45c-2.06-0.74-5.89-3.8-12.5-14.18
		c-6.9-10.82-13.7-24.67-17.76-32.95c-1.1-2.23-1.96-3.99-2.56-5.14c-2.17-4.18-2.36-6-2.33-6.63c0.03,0,0.06,0.01,0.09,0.02
		c0.15,0.03,0.31,0.05,0.46,0.05c0.78,0,1.49-0.45,1.82-1.17c-0.65-0.33-1.25-0.61-1.81-0.83c-0.01,0-0.01,0-0.01,0
		c-0.99-0.39-1.83-0.6-2.5-0.6c-2.79,0-5.32,3.64-8.68,10.64c-0.35,0.73-0.79,1.7-1.3,2.85c-4.36,9.92-13.62,34.06-12.43,47.86
		c0.42,4.81,1.98,8.65,4.35,11.91c0.72,1.47,1.7,3.55,2.81,6c4.06,3.65,9.16,6.66,14.8,9.99c1.9,1.12,3.87,2.28,5.85,3.5
		c2.43,1.5,4.85,3.2,7.2,5.07c9.31,7.41,18.38,17.99,27.72,32.37c0.56,0.86,1.12,1.74,1.68,2.63c-0.05-1.21-0.06-2.48-0.01-3.72
		c2.24,3.44,4.49,7.09,6.76,10.97c0.36,0.61,0.72,1.22,1.09,1.81c0.02,0.03,0.03,0.05,0.04,0.08c5.17,8.78,10.33,15.18,16.78,19.64
		c0.02,0.03,0.03,0.04,0.05,0.04c8.96,4.9,20.26,6.9,35.81,6.9c4.38,0,9.17-0.15,14.64-0.46c2.47-0.14,5.14-0.32,7.93-0.53
		c2.29-0.17,4.32-0.34,6.22-0.53c36.08-3.42,55.36-11.82,61.18-15.58c0.18-0.67,0.17-1.5-0.02-2.45c0.11-0.09,0.2-0.17,0.27-0.24
		C250.889,170.475,246.829,162.205,239.679,155.065z"/>
	<path fill="#140E0D" d="M239.681,155.066c-2.588-2.588-5.689-4.366-8.983-5.731c-5.312-2.198-11.119-3.315-16.043-5.005
		c-0.441-0.146-0.878-0.302-1.307-0.466c-3.252-1.235-8.547-4.198-14.278-7.858c0,4.921-16.35,8.799-32.789,13.426
		c-0.37,0.105-0.744,0.21-1.114,0.315c-16.808,4.761-30.817,1.399-42.86-6.446c-10.493-6.828-9.934-24.502-8.875-34.868
		c0.156-1.538,0.328-2.912,0.471-4.068c0.609-4.891-2.698-8.282-7.605-10.988c-4.084-2.256-9.278-4.038-14.245-5.82
		c-3.857-1.387-8.689-7.413-13.514-14.989C69.688,58.681,60.868,39.586,58.137,34.33c-4.215-8.114-2.508-10.081-0.008-9.484
		c-0.992-0.391-1.832-0.601-2.496-0.601c-2.798,0-5.324,3.643-8.686,10.644c-0.349,0.73-0.79,1.693-1.298,2.849
		c-4.362,9.917-13.619,34.053-12.425,47.857c0.416,4.815,1.971,8.648,4.349,11.909c5.236,7.181,14.489,11.623,24.502,17.787
		c2.496,1.538,4.958,3.27,7.4,5.21c9.538,7.584,18.724,18.333,28.149,32.843c2.231,3.441,4.484,7.093,6.753,10.967
		c0.361,0.618,0.727,1.223,1.092,1.815c0.017,0.025,0.03,0.051,0.042,0.076c13.194,21.292,29.267,26.279,67.165,24.128
		c2.534-0.143,5.165-0.319,7.896-0.525c2.109-0.16,4.168-0.332,6.173-0.525c39.302-3.731,58.064-13.274,61.358-16.043
		c0.105-0.089,0.193-0.168,0.265-0.24C250.888,170.476,246.825,162.21,239.681,155.066z"/>
	<path fill="#3C3A36" d="M214.654,144.33c4.925,1.689,10.732,2.807,16.043,5.005v0.004c-3.875-1.416-16.649-0.294-25.473,6.64
		c-8.824,6.933-17.417,16.812-18.48,33.301c-2.004,0.193-4.063,0.366-6.173,0.525c-2.731,0.206-5.361,0.382-7.896,0.525
		c0-26.498,21.401-39.852,26.347-41.776c0.017-0.005,0.034-0.013,0.046-0.017c3.278-1.231,5.752-2.11,6.996-2.433
		C208.443,145.427,212.62,144.679,214.654,144.33z"/>
	<path fill="#F1E1B2" d="M213.347,143.864c-3.252-1.235-8.547-4.198-14.278-7.858c0,4.921-16.35,8.799-32.789,13.426
		c-0.37,0.105-0.744,0.21-1.114,0.315c-16.808,4.761-30.817,1.399-42.86-6.446c-10.493-6.828-9.934-24.502-8.875-34.868
		c0.156-1.538,0.328-2.912,0.471-4.068c0.609-4.891-2.698-8.282-7.605-10.988c-4.084-2.256-9.278-4.038-14.245-5.82
		c-3.857-1.387-8.689-7.413-13.514-14.989C69.688,58.681,60.868,39.586,58.137,34.33c-4.215-8.114-2.508-10.081-0.008-9.484
		c-0.992-0.391-1.832-0.601-2.496-0.601c-2.798,0-5.324,3.643-8.686,10.644c-0.349,0.73-0.79,1.693-1.298,2.849
		c-1.101,2.572,4.941,15.64,11.665,29.086c6.724,13.447,12.325,26.893,24.931,31.936c4.744,1.899,8.458,3.24,11.244,4.643
		c4.614,2.315,6.686,4.79,6.686,10.207c0,1.424-0.055,3.051-0.092,4.841c-0.189,9.114,0.156,22.346,11.299,33.49
		c13.329,13.329,28.292,19.934,44.819,13.492c12.657-4.933,32.041-12.82,42.823-16.879c0.017-0.005,0.034-0.013,0.046-0.017
		c3.278-1.231,5.752-2.11,6.996-2.433c2.378-0.677,6.555-1.425,8.589-1.773C214.213,144.184,213.776,144.028,213.347,143.864z"/>
	<g>
		<g id="XMLID_2_">
			<path fill="#E5D5AA" d="M106.298,93.375c4.91,2.71,8.21,6.1,7.6,10.99c-0.14,1.16-0.31,2.53-0.47,4.07
				c-0.09,0.84-0.17,1.73-0.24,2.66c-4.06,2.96-8.05,5.96-11.88,8.94c-0.42,0.33-0.84,0.66-1.26,0.98c0-0.88,0.01-1.74,0.03-2.56
				c0.04-1.79,0.1-3.42,0.1-4.85c0-5.41-2.08-7.89-6.69-10.2c-0.62-0.32-1.3-0.63-2.02-0.94c0.25-0.21,0.51-0.41,0.76-0.62
				c3.93-3.17,8-6.36,12.1-9.48C105.008,92.685,105.668,93.025,106.298,93.375z"/>
			<path fill="#060000" d="M100.179,113.605c0,1.43-0.06,3.06-0.1,4.85c-0.02,0.82-0.03,1.68-0.03,2.56
				c-3.13,2.44-6.03,4.77-8.65,6.94c-1.07,0.88-2.51,1.89-4.19,1.89c-2.19,0-3.66-1.56-5.7-3.72c-0.55-0.58-1.17-1.23-1.87-1.93
				c-2.71-2.71-3.86-4.65-3.83-6.48c0.04-1.83,1.25-2.96,1.91-3.58l0.16-0.14c3.64-3.28,8.33-7.27,13.59-11.53
				c0.72,0.31,1.4,0.62,2.02,0.94C98.099,105.715,100.179,108.195,100.179,113.605z"/>
		</g>
	</g>
	<path fill="#F4E7C3" d="M163.205,69.883c-5.56-10.312-7.534-7.581-21.691-0.172c-0.109,0.059-0.218,0.113-0.328,0.172
		c-7.08,3.693-16.808,10.19-26.746,17.43c-2.714,1.979-5.446,4.014-8.144,6.064c-4.438,3.366-8.778,6.769-12.808,10.026
		c-5.542,4.475-10.492,8.665-14.274,12.081c-0.046,0.042-0.097,0.088-0.143,0.13c-1.559,1.454-2.404,2.782,1.983,7.169
		c4.517,4.517,5.324,6.702,9.081,3.626c2.916-2.42,6.291-5.122,9.946-7.958c4.165-3.228,8.698-6.635,13.35-10.018
		c4.614-3.357,9.346-6.69,13.951-9.8c8.496-5.739,16.556-10.731,22.657-13.732c2.496-1.227,4.626-2.328,6.467-3.256
		c5.752-2.904,8.698-4.122,11.249-2.299C167.743,77.01,165.73,74.564,163.205,69.883z"/>
	<g>
		<g id="XMLID_1_">
			<path fill="#E5D5AA" d="M98.269,95.005c1.67,0,3.26,0.32,4.73,0.89c-3.28,2.54-6.48,5.06-9.51,7.51
				c-1.67-0.84-3.67-1.66-6.02-2.58C89.778,97.315,93.749,95.005,98.269,95.005z"/>
			<path fill="#E5D5AA" d="M110.999,110.215c-0.97,5.48-5.39,9.76-10.95,10.52c0-0.78,0.01-1.55,0.03-2.28
				C103.519,115.795,107.199,113.005,110.999,110.215z"/>
			<path fill="#060000" d="M100.079,118.455c-0.02,0.73-0.03,1.5-0.03,2.28c-0.58,0.09-1.18,0.13-1.78,0.13
				c-0.4,0-0.8-0.02-1.19-0.06C98.059,120.035,99.059,119.245,100.079,118.455z"/>
			<path fill="#E7DBBA" d="M111.199,107.935c0,0.78-0.07,1.54-0.2,2.28c-3.8,2.79-7.48,5.58-10.92,8.24c0.04-1.79,0.1-3.42,0.1-4.85
				c0-5.41-2.08-7.89-6.69-10.2c3.03-2.45,6.23-4.97,9.51-7.51C107.798,97.775,111.199,102.455,111.199,107.935z"/>
			<path fill="#E7DBBA" d="M100.179,113.605c0,1.43-0.06,3.06-0.1,4.85c-1.02,0.79-2.02,1.58-3,2.35
				c-5.9-0.53-10.65-5.03-11.57-10.8c2.45-2.08,5.14-4.31,7.98-6.6C98.099,105.715,100.179,108.195,100.179,113.605z"/>
			<path fill="#060000" d="M87.469,100.825c2.35,0.92,4.35,1.74,6.02,2.58c-2.84,2.29-5.53,4.52-7.98,6.6
				c-0.11-0.67-0.17-1.37-0.17-2.07C85.338,105.305,86.119,102.865,87.469,100.825z"/>
		</g>
	</g>
	<circle fill="#F6ECD1" cx="98.27" cy="107.934" r="10.433"/>
</g>
</svg>
